<svg width="230" height="47" viewBox="0 0 230 47" fill="none" xmlns="http://www.w3.org/2000/svg">
<circle cx="64.9264" cy="22.7831" r="10.9083" stroke="#E61535" stroke-width="4.41854"/>
<path d="M57.608 30.2394L71.8301 16.0172" stroke="#E61535" stroke-width="4.41854"/>
<path d="M6.85417 22.8103C6.85417 23.9218 6.99002 24.9963 7.26172 26.0337C7.55812 27.071 7.99036 27.9849 8.55846 28.7753C9.15125 29.5657 9.89224 30.2079 10.7814 30.7019C11.6953 31.1712 12.7821 31.4059 14.0418 31.4059C15.6226 31.4059 16.9193 31.0601 17.932 30.3685C18.9694 29.6522 19.6116 28.6642 19.8586 27.4045H25.0455C24.922 28.8618 24.5392 30.1462 23.897 31.2577C23.2548 32.3444 22.4274 33.2583 21.4147 33.9993C20.402 34.7403 19.2534 35.2961 17.9691 35.6666C16.6847 36.037 15.3509 36.2223 13.9677 36.2223C11.9176 36.2223 10.1022 35.8889 8.52141 35.222C6.96532 34.5551 5.64389 33.6288 4.5571 32.4432C3.49501 31.2577 2.69227 29.8498 2.14888 28.2196C1.60548 26.5894 1.33379 24.7987 1.33379 22.8474C1.33379 20.9455 1.60548 19.1795 2.14888 17.5493C2.71697 15.8944 3.54441 14.4742 4.6312 13.2886C5.71799 12.0783 7.03942 11.1397 8.59551 10.4728C10.1763 9.78124 11.9917 9.43544 14.0418 9.43544C15.4744 9.43544 16.8205 9.60834 18.0802 9.95414C19.3399 10.2999 20.4637 10.831 21.4517 11.5473C22.4397 12.2636 23.2424 13.1898 23.8599 14.326C24.5021 15.4375 24.8973 16.7713 25.0455 18.3273H19.8586C19.5869 17.0677 18.9447 16.0673 17.932 15.3263C16.9193 14.5853 15.6226 14.2148 14.0418 14.2148C12.7821 14.2148 11.6953 14.4495 10.7814 14.9188C9.89224 15.3881 9.15125 16.0303 8.55846 16.8454C7.99036 17.6358 7.55812 18.5496 7.26172 19.587C6.99002 20.6244 6.85417 21.6989 6.85417 22.8103ZM26.2366 14.5483V9.76889H48.0588V14.5483H39.8338V36H34.4616V14.5483H26.2366Z" fill="#555555"/>
<path d="M134.425 12.3994V8.5833H139.798V12.3994H141.131C142.712 12.3994 144.157 12.6217 145.466 13.0663C146.8 13.4862 147.924 14.116 148.838 14.9558C149.776 15.7956 150.493 16.8454 150.987 18.105C151.505 19.34 151.765 20.7603 151.765 22.3657C151.74 25.6755 150.814 28.1949 148.986 29.9239C147.158 31.6281 144.602 32.4926 141.317 32.5173H139.798V36.6298H134.425V32.5173H133.092C131.486 32.5173 130.029 32.3074 128.72 31.8875C127.411 31.4429 126.287 30.8007 125.348 29.9609C124.434 29.1211 123.718 28.0837 123.199 26.8488C122.705 25.5891 122.458 24.1565 122.458 22.551C122.483 19.2412 123.409 16.7342 125.237 15.0299C127.065 13.3009 129.621 12.4241 132.906 12.3994H134.425ZM139.798 16.9195V27.9602H141.354C143.157 27.9602 144.478 27.4415 145.318 26.4042C146.158 25.3668 146.553 23.9836 146.504 22.2546C146.454 20.6491 145.96 19.3647 145.022 18.4014C144.108 17.4135 142.836 16.9195 141.205 16.9195H139.798ZM134.425 27.9602V16.9195H132.869C131.066 16.9195 129.745 17.4505 128.905 18.5126C128.065 19.55 127.67 20.9332 127.719 22.6621C127.769 24.2676 128.25 25.552 129.164 26.5153C130.103 27.4786 131.387 27.9602 133.017 27.9602H134.425ZM174.635 9.76889V14.5483H161.26V20.6615H172.93V25.4409H161.26V31.2577H174.635V36H155.887V9.76889H174.635ZM190.351 8.02756C188.35 8.02756 186.695 7.53356 185.386 6.54557C184.077 5.55758 183.311 4.06325 183.089 2.06257H187.609C187.955 3.49516 188.881 4.21145 190.388 4.21145C191.104 4.21145 191.697 4.0262 192.166 3.65571C192.66 3.28521 192.969 2.75416 193.092 2.06257H197.686C197.415 4.06325 196.612 5.55758 195.278 6.54557C193.969 7.53356 192.327 8.02756 190.351 8.02756ZM184.126 26.7006L196.945 9.76889H201.28V36H195.908V19.2165L183.089 36H178.754V9.76889H184.126V26.7006ZM212.203 25.3297V36H206.831V9.76889H212.203V20.5874H214.982L222.614 9.76889H228.838L219.576 22.2176L228.949 36H222.688L215.5 25.3297H212.203Z" fill="#555555"/>
<path d="M108.794 9.76889V36H103.422V14.5483H92.27V36H86.8978V9.76889H108.794Z" fill="#555555"/>
</svg>
